<mxfile host="app.diagrams.net" modified="2024-01-09T10:27:17.851Z" agent="Mozilla/5.0 (X11; Linux x86_64) AppleWebKit/537.36 (KHTML, like Gecko) Chrome/120.0.0.0 Safari/537.36" etag="WjRikqzPuzxmPAuikDEv" version="22.1.17" type="device">
  <diagram id="9XxHY0PqiuxusTkwl1Iu" name="Page-1">
    <mxGraphModel dx="2191" dy="779" grid="1" gridSize="10" guides="1" tooltips="1" connect="1" arrows="1" fold="1" page="1" pageScale="1" pageWidth="827" pageHeight="1169" math="0" shadow="0">
      <root>
        <mxCell id="0" />
        <mxCell id="1" parent="0" />
        <mxCell id="6Vvcoa5o5CpD2xvE9Xhp-56" style="edgeStyle=none;rounded=0;orthogonalLoop=1;jettySize=auto;html=1;exitX=1;exitY=0.5;exitDx=0;exitDy=0;entryX=0.015;entryY=0.281;entryDx=0;entryDy=0;entryPerimeter=0;startArrow=none;startFill=0;endArrow=classic;endFill=1;strokeColor=#000000;strokeWidth=2;" parent="1" source="6Vvcoa5o5CpD2xvE9Xhp-7" target="6Vvcoa5o5CpD2xvE9Xhp-21" edge="1">
          <mxGeometry relative="1" as="geometry" />
        </mxCell>
        <mxCell id="6Vvcoa5o5CpD2xvE9Xhp-7" value="Road layer" style="rounded=0;whiteSpace=wrap;html=1;" parent="1" vertex="1">
          <mxGeometry x="-110" y="319" width="100" height="40" as="geometry" />
        </mxCell>
        <mxCell id="6Vvcoa5o5CpD2xvE9Xhp-57" style="edgeStyle=none;rounded=0;orthogonalLoop=1;jettySize=auto;html=1;exitX=1;exitY=0.5;exitDx=0;exitDy=0;entryX=0;entryY=0.5;entryDx=0;entryDy=0;startArrow=none;startFill=0;endArrow=classic;endFill=1;strokeColor=#000000;strokeWidth=2;" parent="1" source="6Vvcoa5o5CpD2xvE9Xhp-9" target="6Vvcoa5o5CpD2xvE9Xhp-21" edge="1">
          <mxGeometry relative="1" as="geometry" />
        </mxCell>
        <mxCell id="6Vvcoa5o5CpD2xvE9Xhp-9" value="Vegetation layer" style="rounded=0;whiteSpace=wrap;html=1;" parent="1" vertex="1">
          <mxGeometry x="-110" y="400" width="100" height="40" as="geometry" />
        </mxCell>
        <mxCell id="6Vvcoa5o5CpD2xvE9Xhp-58" style="edgeStyle=none;rounded=0;orthogonalLoop=1;jettySize=auto;html=1;exitX=1;exitY=0.5;exitDx=0;exitDy=0;entryX=-0.008;entryY=0.792;entryDx=0;entryDy=0;entryPerimeter=0;startArrow=none;startFill=0;endArrow=classic;endFill=1;strokeColor=#000000;strokeWidth=2;" parent="1" source="6Vvcoa5o5CpD2xvE9Xhp-10" edge="1">
          <mxGeometry relative="1" as="geometry">
            <mxPoint x="98.96000000000004" y="506.904" as="targetPoint" />
          </mxGeometry>
        </mxCell>
        <mxCell id="6Vvcoa5o5CpD2xvE9Xhp-10" value="Water layer" style="rounded=0;whiteSpace=wrap;html=1;" parent="1" vertex="1">
          <mxGeometry x="-110" y="486" width="100" height="40" as="geometry" />
        </mxCell>
        <mxCell id="6Vvcoa5o5CpD2xvE9Xhp-52" style="edgeStyle=none;rounded=0;orthogonalLoop=1;jettySize=auto;html=1;exitX=1;exitY=0.5;exitDx=0;exitDy=0;entryX=0;entryY=0.5;entryDx=0;entryDy=0;startArrow=none;startFill=0;endArrow=classic;endFill=1;strokeColor=#000000;strokeWidth=2;" parent="1" source="6Vvcoa5o5CpD2xvE9Xhp-44" target="6Vvcoa5o5CpD2xvE9Xhp-48" edge="1">
          <mxGeometry relative="1" as="geometry" />
        </mxCell>
        <mxCell id="6Vvcoa5o5CpD2xvE9Xhp-44" value="Zone layer" style="rounded=0;whiteSpace=wrap;html=1;" parent="1" vertex="1">
          <mxGeometry x="-110" y="134" width="100" height="40" as="geometry" />
        </mxCell>
        <mxCell id="6Vvcoa5o5CpD2xvE9Xhp-47" value="&lt;b&gt;Data input&lt;/b&gt;" style="text;html=1;strokeColor=none;fillColor=none;align=center;verticalAlign=middle;whiteSpace=wrap;rounded=0;" parent="1" vertex="1">
          <mxGeometry x="-150" y="104" width="80" height="20" as="geometry" />
        </mxCell>
        <mxCell id="6Vvcoa5o5CpD2xvE9Xhp-54" style="edgeStyle=none;rounded=0;orthogonalLoop=1;jettySize=auto;html=1;exitX=0.5;exitY=1;exitDx=0;exitDy=0;startArrow=none;startFill=0;endArrow=classic;endFill=1;strokeColor=#000000;strokeWidth=2;" parent="1" source="6Vvcoa5o5CpD2xvE9Xhp-48" target="6Vvcoa5o5CpD2xvE9Xhp-21" edge="1">
          <mxGeometry relative="1" as="geometry" />
        </mxCell>
        <mxCell id="6Vvcoa5o5CpD2xvE9Xhp-48" value="Create&lt;br&gt;Grid" style="rhombus;whiteSpace=wrap;html=1;" parent="1" vertex="1">
          <mxGeometry x="125" y="113" width="80" height="80" as="geometry" />
        </mxCell>
        <mxCell id="6Vvcoa5o5CpD2xvE9Xhp-55" style="rounded=0;orthogonalLoop=1;jettySize=auto;html=1;exitX=1;exitY=0.5;exitDx=0;exitDy=0;startArrow=none;startFill=0;endArrow=classic;endFill=1;strokeColor=#000000;strokeWidth=2;" parent="1" source="6Vvcoa5o5CpD2xvE9Xhp-53" edge="1">
          <mxGeometry relative="1" as="geometry">
            <mxPoint x="100" y="259" as="targetPoint" />
          </mxGeometry>
        </mxCell>
        <mxCell id="6Vvcoa5o5CpD2xvE9Xhp-53" value="Building layer" style="rounded=0;whiteSpace=wrap;html=1;" parent="1" vertex="1">
          <mxGeometry x="-110" y="239" width="100" height="40" as="geometry" />
        </mxCell>
        <mxCell id="6Vvcoa5o5CpD2xvE9Xhp-66" value="List of indicators..." style="rounded=0;whiteSpace=wrap;html=1;" parent="1" vertex="1">
          <mxGeometry x="320" y="314.5" width="100" height="40" as="geometry" />
        </mxCell>
        <mxCell id="6Vvcoa5o5CpD2xvE9Xhp-72" style="edgeStyle=none;rounded=0;orthogonalLoop=1;jettySize=auto;html=1;exitX=1;exitY=0.5;exitDx=0;exitDy=0;startArrow=none;startFill=0;endArrow=classic;endFill=1;strokeColor=#000000;strokeWidth=2;" parent="1" edge="1">
          <mxGeometry relative="1" as="geometry">
            <mxPoint x="230" y="336" as="sourcePoint" />
            <mxPoint x="320" y="336" as="targetPoint" />
          </mxGeometry>
        </mxCell>
        <mxCell id="6Vvcoa5o5CpD2xvE9Xhp-76" value="RSU LCZ" style="rounded=0;whiteSpace=wrap;html=1;" parent="1" vertex="1">
          <mxGeometry x="-110" y="560" width="100" height="40" as="geometry" />
        </mxCell>
        <mxCell id="6Vvcoa5o5CpD2xvE9Xhp-77" style="edgeStyle=none;rounded=0;orthogonalLoop=1;jettySize=auto;html=1;exitX=1;exitY=0.5;exitDx=0;exitDy=0;entryX=-0.008;entryY=0.792;entryDx=0;entryDy=0;entryPerimeter=0;startArrow=none;startFill=0;endArrow=classic;endFill=1;strokeColor=#000000;strokeWidth=2;" parent="1" edge="1">
          <mxGeometry relative="1" as="geometry">
            <mxPoint x="-10" y="582" as="sourcePoint" />
            <mxPoint x="98.96000000000004" y="582.904" as="targetPoint" />
          </mxGeometry>
        </mxCell>
        <mxCell id="6Vvcoa5o5CpD2xvE9Xhp-21" value="" style="rounded=1;whiteSpace=wrap;html=1;fillColor=#f5f5f5;strokeColor=#666666;fontColor=#333333;" parent="1" vertex="1">
          <mxGeometry x="100" y="233" width="140" height="377" as="geometry" />
        </mxCell>
        <mxCell id="6Vvcoa5o5CpD2xvE9Xhp-31" value="&lt;font style=&quot;font-size: 14px&quot;&gt;Spatial aggregation processes&lt;/font&gt;" style="text;html=1;strokeColor=none;fillColor=none;align=center;verticalAlign=middle;whiteSpace=wrap;rounded=0;rotation=-90;" parent="1" vertex="1">
          <mxGeometry x="65" y="406" width="210" height="20" as="geometry" />
        </mxCell>
      </root>
    </mxGraphModel>
  </diagram>
</mxfile>
